<?xml version="1.0" standalone="no"?>
<!DOCTYPE svg PUBLIC "-//W3C//DTD SVG 20010904//EN"
 "http://www.w3.org/TR/2001/REC-SVG-20010904/DTD/svg10.dtd">
<svg version="1.0" xmlns="http://www.w3.org/2000/svg"
 width="300.000000pt" height="300.000000pt" viewBox="0 0 300.000000 300.000000"
 preserveAspectRatio="xMidYMid meet">
<metadata>
Created by potrace 1.11, written by Peter Selinger 2001-2013
</metadata>
<g transform="translate(0.000000,300.000000) scale(0.100000,-0.100000)"
fill="#000000" stroke="none">
<path d="M1312 2390 l183 -190 73 73 c40 39 123 125 184 190 l110 117 -367 0
-367 0 184 -190z"/>
<path d="M200 1492 l0 -1082 108 0 107 0 93 93 92 92 0 795 0 795 -122 120
c-68 66 -158 154 -200 195 l-78 74 0 -1082z"/>
<path d="M2598 2379 l-198 -191 0 -889 0 -889 200 0 200 0 0 1080 c0 594 -1
1080 -2 1080 -2 0 -92 -86 -200 -191z"/>
<path d="M2057 1837 l-197 -192 0 -618 0 -617 198 2 197 3 2 808 c2 444 2 807
0 807 -1 -1 -91 -87 -200 -193z"/>
<path d="M750 1379 l0 -626 200 201 200 201 0 225 0 225 -200 200 -200 200 0
-626z"/>
<path d="M1300 1427 c0 -64 1 -117 3 -117 1 0 28 26 60 58 l57 58 -60 59 -60
59 0 -117z"/>
<path d="M1689 1463 c-1 -5 -1 -11 0 -15 0 -5 -3 -7 -8 -5 -6 1 -91 -81 -190
-183 l-181 -184 0 -328 0 -328 195 0 195 0 0 525 c0 289 -2 525 -5 525 -3 0
-6 -3 -6 -7z"/>
<path d="M890 675 l-255 -255 75 0 c41 0 159 -3 263 -7 l187 -6 -1 234 c-1
129 -4 246 -8 262 -6 26 -17 16 -261 -228z"/>
</g>
</svg>
